<svg width="38" height="50" viewBox="0 0 38 50" fill="none" xmlns="http://www.w3.org/2000/svg">
<g clip-path="url(#clip0_395_4526)">
<path d="M31.0985 24.6388C31.0985 32.9542 24.2831 39.6957 15.8754 39.6957C7.46776 39.6957 0.651855 32.9544 0.651855 24.6388C0.651855 16.3233 7.46705 9.58203 15.875 9.58203C24.2829 9.58203 31.0981 16.3228 31.0981 24.6388" fill="#138A44"/>
<path d="M0.65235 24.6392C0.65235 25.741 0.773405 26.8155 1.00009 27.8501H30.7508C30.978 26.8155 31.0986 25.7412 31.0986 24.6392C31.0993 23.3695 30.9382 22.1048 30.6191 20.875H1.13182C0.812327 22.1048 0.651226 23.3695 0.65235 24.6392Z" fill="white"/>
<path d="M20.9126 9.47141L22.9831 3.16049C22.9831 3.16049 19.5129 1.27816 7.70399 1.61058C7.70399 1.61058 27.9642 -3.86975 36.8627 8.4192C36.8627 8.4192 38.0384 10.6335 35.2396 12.6262C35.2396 12.6262 31.157 7.03574 27.2369 4.87896L24.2703 10.8021M6.41748 49.6597C6.41748 49.6597 8.32043 42.1313 9.38334 40.3598C10.4463 38.5882 11.3416 40.249 11.1745 40.969C11.0074 41.689 8.20792 46.7254 6.41772 49.6599" fill="#138A44"/>
<path d="M5.88526 16.3086V15.6442C5.79031 15.6442 5.72195 15.6874 5.71436 15.6921L5.82046 15.6099C8.88957 13.1911 10.8768 13.7776 12.0033 14.696L11.5761 15.2087C10.2357 14.1159 8.39016 14.434 6.23917 16.129C6.07467 16.2597 6.01201 16.3086 5.88312 16.3086" fill="white"/>
<path d="M23.6887 15.7061C23.5875 15.1858 22.7952 14.4602 21.8206 14.2522C20.7539 14.024 19.8989 13.677 19.0491 13.126C18.5886 12.8267 17.8535 13.153 17.4595 13.3286C17.2364 13.4279 17.1239 13.4777 16.9848 13.4507C16.7795 13.4101 16.6999 13.2347 16.6411 13.0948C16.5205 12.8192 16.2962 12.3076 15.3522 12.0924C14.1504 11.8189 13.4853 12.9211 13.4784 12.9328L13.3609 13.1314L13.1314 13.0927C11.4687 12.8121 10.7815 14.351 10.7578 14.4167L10.1406 14.1597C10.4345 13.4643 11.4034 12.2478 13.0305 12.4088C13.4324 11.8752 14.3123 11.1733 15.5077 11.4453C16.6477 11.7036 17.0368 12.348 17.2096 12.714C17.6919 12.4994 18.6629 12.079 19.4218 12.5731C20.1992 13.0772 20.9851 13.396 21.9675 13.6054C23.1377 13.8559 24.2754 14.9537 24.4428 15.8122L23.6927 15.7089L23.6887 15.7061Z" fill="white"/>
<path d="M21.6842 17.4971C21.518 17.2107 20.9661 16.44 20.4261 16.3292C19.9039 16.2207 19.227 16.7658 18.9839 16.9936C18.9839 16.9936 18.8885 17.2769 18.7845 17.2945C18.606 17.326 18.4351 17.1114 18.4351 17.1114C15.991 15.5169 14.2274 17.1666 14.154 17.2382L13.6831 16.764C13.7038 16.7405 15.7885 14.7633 18.5875 16.4217C18.9673 16.1104 19.8095 15.5253 20.5624 15.6789C21.1207 15.7932 21.594 16.2564 21.9011 16.6381C22.2334 16.0395 22.8601 15.4274 23.8437 15.5643C25.566 15.8031 25.6994 16.8508 25.6994 17.1668H25.0277C25.0277 16.8799 24.8622 16.3761 23.7495 16.2224C22.6695 16.0745 22.317 17.3605 22.303 17.4157C22.303 17.4157 22.2783 17.6575 22.0058 17.7098C21.7333 17.7622 21.6861 17.4974 21.6861 17.4974" fill="white"/>
<path d="M26.8901 17.9039C26.1828 17.2301 24.7254 16.5312 24.7102 16.5244L25.0021 15.9258C25.0658 15.9563 26.5699 16.677 27.3563 17.4252L26.8904 17.9037L26.8901 17.9039ZM17.7951 37.8828C16.7585 37.8828 15.7805 37.8123 15.1432 37.7572C13.2961 37.5914 8.63826 36.5768 8.44054 36.5331L8.07666 36.4533L8.33444 35.6884C8.45882 35.3203 8.47757 34.6167 8.37882 34.0517C8.25872 33.3704 8.22549 33.0574 8.62568 32.1468C8.9955 31.3009 9.97866 29.7827 10.0223 29.7189L10.067 29.6637C10.1365 29.5949 10.2277 29.5599 10.3376 29.5599C10.4752 29.5599 10.7292 29.6172 11.3409 29.7585C12.3036 29.9809 13.762 30.3173 15.124 30.4534C15.4454 30.4863 15.809 30.502 16.204 30.502C17.9052 30.502 19.7948 30.2046 20.5283 30.0795L20.5751 30.0717C20.6001 30.0672 20.6256 30.065 20.651 30.0651C20.9905 30.0651 21.1034 30.353 21.2765 30.7882L21.4716 31.2664C21.6534 31.6906 22.0555 32.0787 22.4813 32.4902C22.7026 32.7015 22.9311 32.9255 23.146 33.1711C23.858 33.9634 23.953 35.0069 23.9568 35.0511L23.967 35.1717L23.897 35.271C23.8507 35.3344 22.7588 36.8529 21.2845 37.436C20.525 37.7358 19.35 37.8879 17.7953 37.8879M8.95253 35.9657C10.1075 36.2127 13.6951 36.9627 15.2071 37.0987C15.8309 37.155 16.7863 37.2214 17.7977 37.2214C19.2494 37.2214 20.37 37.0818 21.0401 36.8165C22.1277 36.3862 23.0164 35.321 23.2756 34.9853C23.2314 34.7266 23.0857 34.0932 22.6482 33.6061C22.4469 33.3814 22.2274 33.1694 22.014 32.9638C21.5383 32.5046 21.0894 32.07 20.8549 31.523C20.7718 31.3286 20.707 31.1645 20.6532 31.0281L20.5392 30.7504C19.7227 30.8913 17.8817 31.1666 16.2057 31.1666C15.7879 31.1666 15.4015 31.1493 15.0578 31.115C13.6502 30.9741 12.17 30.6321 11.1897 30.406L10.4807 30.2483C10.2132 30.6689 9.52292 31.7735 9.24354 32.4116C8.90815 33.1765 8.93924 33.3535 9.04226 33.9385C9.16189 34.6193 9.13412 35.4255 8.97413 35.8997L8.9523 35.964L8.95253 35.9657Z" fill="white"/>
<path d="M11.3862 36.7667L10.7382 36.5916C10.7382 36.5916 10.7325 36.6024 10.7311 36.6268C10.7311 36.624 10.7462 36.3317 10.3157 35.5027C9.89933 34.6994 9.03201 34.7646 8.99521 34.7679L8.93018 34.1066C8.98477 34.1014 10.2843 33.9876 10.9138 35.1982C11.4472 36.2265 11.4218 36.6373 11.3867 36.7665" fill="white"/>
<path d="M15.4008 37.3999C15.3937 37.3193 15.1943 35.3973 13.2883 35.1837C11.4264 34.9733 11.0934 35.6368 11.0903 35.6434L10.4644 35.4039C10.5078 35.2846 10.96 34.2531 13.3649 34.5235C15.3289 34.7442 15.9921 36.465 16.0676 37.3442L15.3982 37.4001L15.4008 37.3999Z" fill="white"/>
<path d="M19.9995 37.6092L19.6263 37.4261C19.6199 37.4127 18.9819 36.0414 17.7882 35.8754C16.6488 35.7191 15.997 37.0359 15.9913 37.0481L15.4312 36.7086C15.4644 36.6382 16.2534 34.9918 17.8807 35.2183C18.7678 35.3411 19.3968 35.924 19.7801 36.4189C19.8734 35.9745 19.9809 35.413 20.0476 34.9211C20.0821 34.6737 20.1037 34.4234 20.125 34.1816C20.1962 33.3616 20.2613 32.6557 20.736 32.2937C21.1989 31.9415 21.3762 31.8558 21.431 31.834L21.878 31.8692L22.0876 36.557L21.4163 36.5856L21.2466 32.7453L21.1436 32.8216C20.9043 33.0024 20.8483 33.632 20.7946 34.2403L20.7139 35.0103C20.5734 36.0386 20.2724 37.3129 20.2601 37.3664L19.9995 37.6092Z" fill="white"/>
<path d="M5.64813 22.7846V27.1869H4.57809V22.7846H3.05469V21.9629H7.17248V22.7846H5.64813ZM20.4924 27.1869L20.1534 26.1555H18.0034L17.6568 27.1869H16.5066L18.331 21.9657H19.9529L21.7777 27.1869H20.4945H20.4924ZM19.0929 22.9242L18.2818 25.3533H19.894L19.0929 22.9242ZM12.8977 27.1869L12.5583 26.1555H10.4082L10.0612 27.1869H8.91141L10.7358 21.9657H12.3577L14.1826 27.1869H12.8953H12.8977ZM11.4982 22.9242L10.6864 25.3533H12.2995L11.4982 22.9242ZM27.2934 27.1869L25.7251 24.0706L25.4016 23.3996V27.1869H24.398V21.9652H25.751L27.3513 25.1012L27.6342 25.7123V21.9652H28.6378V27.1864L27.2934 27.1869Z" fill="#138A44"/>
<path d="M21.4585 17.782H10.8389V18.0935H13.1546V18.7367C13.1546 18.7367 12.5849 18.7367 12.0627 18.7987C11.5405 18.8607 11.2787 19.1861 11.2998 19.5532C11.321 19.9204 11.9089 20.4108 12.9512 20.4184C13.9934 20.4259 14.532 20.1272 14.532 20.1272L14.1681 19.8437C14.1681 19.8437 12.8389 20.231 12.2441 20.093C11.6492 19.9549 11.4541 19.4079 12.0907 19.2349C12.7273 19.0619 13.7689 19.145 13.7689 19.145V18.0933H15.4414V20.0995L15.9873 20.4047V18.0935H19.9323V18.6816H17.6806C17.6806 18.6816 17.5548 18.6745 17.4708 18.799C17.3868 18.9234 17.4637 19.0572 17.6598 19.2349L18.1005 19.6152C18.1005 19.6152 18.3101 19.684 18.3142 19.4908V18.9785H19.9159V20.1204L20.4894 20.4108V18.093H21.4554V17.7812L21.4585 17.782Z" fill="white"/>
</g>
<defs>
<clipPath id="clip0_395_4526">
<rect width="37.5" height="50" fill="white"/>
</clipPath>
</defs>
</svg>
